# xmcd
#
# Track frame offsets:
# 150
# 14139
# 30080
# 44658
# 59597
# 73541
# 95194
# 113188
# 131979
#
# Disc length: 1950 seconds
#
#
# Revision: 0
# Processed by: cddbd v1.5.2PL0 Copyright (c) Steve Scherf et al.
# Submitted via: FreeRIP 2.60 
#
DISCID=87079c09
DTITLE=J.D. Slim - Slide Guitar Man
DYEAR=1999
DGENRE=Blues
TTITLE0=Lonely Avenue
TTITLE1=Safe As Milk
TTITLE2=The Only One I Want
TTITLE3=My Babe (She's Mine)
TTITLE4=Sick And Tired
TTITLE5=In Disguise
TTITLE6=Let It Rock
TTITLE7=Tossin' n' Turnin'
TTITLE8=Slide Guitar Man
EXTD=Can be heard on BluesfestRadio.com
EXTT0=
EXTT1=
EXTT2=
EXTT3=
EXTT4=
EXTT5=
EXTT6=
EXTT7=
EXTT8=
PLAYORDER=
